<svg width="38" height="38" viewBox="0 0 38 38" fill="none" xmlns="http://www.w3.org/2000/svg">
<path fill-rule="evenodd" clip-rule="evenodd" d="M19.0001 37.3334C8.88008 37.3334 0.666748 29.1384 0.666748 19.0001C0.666748 8.88008 8.88008 0.666748 19.0001 0.666748C29.1384 0.666748 37.3334 8.88008 37.3334 19.0001C37.3334 29.1384 29.1384 37.3334 19.0001 37.3334ZM24.8484 25.8017C25.0684 25.9301 25.3067 26.0034 25.5634 26.0034C26.0217 26.0034 26.4801 25.7651 26.7367 25.3251C27.1217 24.6834 26.9201 23.8401 26.2601 23.4367L19.7334 19.5501V11.0801C19.7334 10.3101 19.1101 9.70508 18.3584 9.70508C17.6067 9.70508 16.9834 10.3101 16.9834 11.0801V20.3384C16.9834 20.8151 17.2401 21.2551 17.6617 21.5117L24.8484 25.8017Z" fill="url(#paint0_linear_583_841)"/>
<defs>
<linearGradient id="paint0_linear_583_841" x1="37.3334" y1="37.3334" x2="-6.29663" y2="24.6833" gradientUnits="userSpaceOnUse">
<stop stop-color="#6949FF"/>
<stop offset="1" stop-color="#876DFF"/>
</linearGradient>
</defs>
</svg>
