<svg width="24" height="24" viewBox="0 0 24 24" fill="none" xmlns="http://www.w3.org/2000/svg">
<path fill-rule="evenodd" clip-rule="evenodd" d="M11.9999 2.08337C6.53175 2.08337 2.08325 6.53187 2.08325 12C2.08325 17.4682 6.53175 21.9167 11.9999 21.9167C17.4681 21.9167 21.9166 17.4682 21.9166 12C21.9166 6.53187 17.4681 2.08337 11.9999 2.08337ZM11.9999 23.6667C5.56692 23.6667 0.333252 18.433 0.333252 12C0.333252 5.56704 5.56692 0.333374 11.9999 0.333374C18.4329 0.333374 23.6666 5.56704 23.6666 12C23.6666 18.433 18.4329 23.6667 11.9999 23.6667Z" fill="white"/>
<path fill-rule="evenodd" clip-rule="evenodd" d="M11.9929 13.6019C11.5099 13.6019 11.1179 13.2099 11.1179 12.7269V7.57141C11.1179 7.08841 11.5099 6.69641 11.9929 6.69641C12.4759 6.69641 12.8679 7.08841 12.8679 7.57141V12.7269C12.8679 13.2099 12.4759 13.6019 11.9929 13.6019Z" fill="white"/>
<path fill-rule="evenodd" clip-rule="evenodd" d="M12.0045 17.5953C11.3594 17.5953 10.832 17.0738 10.832 16.4286C10.832 15.7835 11.3489 15.262 11.9929 15.262H12.0045C12.6497 15.262 13.1712 15.7835 13.1712 16.4286C13.1712 17.0738 12.6497 17.5953 12.0045 17.5953Z" fill="white"/>
</svg>
