<svg width="22" height="27" viewBox="0 0 22 27" fill="none" xmlns="http://www.w3.org/2000/svg">
<path d="M4.57333 8.20184C4.44864 9.53184 4.36114 11.8856 5.14645 12.8875C5.14645 12.8875 4.77676 10.3018 8.09083 7.05778C9.4252 5.75184 9.73364 3.97559 9.2677 2.6434C9.00301 1.88872 8.51958 1.26528 8.09958 0.829966C7.85458 0.574028 8.0427 0.151841 8.39926 0.167153C10.5561 0.263403 14.0518 0.862778 15.5371 4.59028C16.1889 6.22653 16.2371 7.91747 15.9264 9.63684C15.7296 10.735 15.0296 13.1762 16.6264 13.4759C17.7661 13.6903 18.3174 12.7847 18.5646 12.1328C18.6674 11.8615 19.024 11.7937 19.2164 12.0103C21.1414 14.2 21.3055 16.779 20.9074 18.9993C20.1374 23.2912 15.7908 26.415 11.4727 26.415C6.07833 26.415 1.78426 23.3284 0.670825 17.7415C0.222388 15.4862 0.449888 11.0237 3.92801 7.87372C4.18614 7.63747 4.60833 7.84747 4.57333 8.20184Z" fill="url(#paint0_radial_583_835)"/>
<defs>
<radialGradient id="paint0_radial_583_835" cx="0" cy="0" r="1" gradientUnits="userSpaceOnUse" gradientTransform="translate(10.4043 26.483) rotate(-179.751) scale(15.4411 25.3357)">
<stop offset="0.314" stop-color="#FF9800"/>
<stop offset="0.662" stop-color="#FF6D00"/>
<stop offset="0.972" stop-color="#F44336"/>
</radialGradient>
</defs>
</svg>
