<svg width="144" height="144" viewBox="0 0 144 144" fill="none" xmlns="http://www.w3.org/2000/svg">
<path d="M91.0499 85.8782C95.1756 98.362 98.73 123.59 79.9422 124.632C56.4575 125.935 59.6311 113.234 62.8047 89.7861L63.122 88.4835L91.0499 85.8782ZM85.9721 85.8782C91.0499 75.7825 87.8763 48.7524 78.3554 44.5187C75.7107 42.999 69.2789 41.3923 64.7089 47.124C60.2658 54.94 59.5041 76.4339 66.613 88.1578C73.2141 89.1999 82.2695 87.0723 85.9721 85.8782Z" stroke="black" stroke-linecap="round"/>
<path d="M74.5471 66.9891C80.8944 70.1155 84.5969 66.9891 85.6548 65.0352C84.8931 67.3799 82.587 69.4859 81.5291 70.2458C77.213 83.2724 70.7388 76.7591 67.8825 71.5485C66.1053 70.7669 63.7568 68.1832 62.8047 66.9891C66.867 70.8971 72.3256 68.6175 74.5471 66.9891Z" fill="black"/>
<path d="M85.6548 65.0352L84.3357 64.321C84.7049 63.639 85.5332 63.3509 86.246 63.6566C86.9588 63.9623 87.321 64.7609 87.0814 65.4986L85.6548 65.0352ZM74.5471 66.9891L73.6604 65.7793L74.394 65.2416L75.2099 65.6435L74.5471 66.9891ZM62.8047 66.9891L61.6319 67.9243C61.1393 67.3065 61.2104 66.4125 61.7945 65.8804C62.3786 65.3482 63.2753 65.3604 63.8447 65.9082L62.8047 66.9891ZM67.8825 71.5485L68.4864 70.1754L68.9529 70.3805L69.1979 70.8274L67.8825 71.5485ZM81.5291 70.2458L80.1052 69.774L80.2584 69.3117L80.654 69.0275L81.5291 70.2458ZM86.9739 65.7493C86.2811 67.029 84.8079 68.5689 82.5712 69.3361C80.2859 70.1201 77.3589 70.0462 73.8843 68.3348L75.2099 65.6435C78.0826 67.0585 80.1805 66.9846 81.5978 66.4984C83.0636 65.9956 83.9706 64.9953 84.3357 64.321L86.9739 65.7493ZM75.4339 68.199C74.1618 69.1314 72.0096 70.228 69.5633 70.5523C67.0672 70.8831 64.1954 70.4084 61.7648 68.0701L63.8447 65.9082C65.4763 67.4778 67.365 67.8174 69.1691 67.5783C71.0231 67.3326 72.7109 66.4753 73.6604 65.7793L75.4339 68.199ZM63.9776 66.054C64.4176 66.6059 65.1987 67.5005 66.074 68.3424C66.983 69.2167 67.855 69.8977 68.4864 70.1754L67.2787 72.9215C66.1329 72.4176 64.9419 71.416 63.9944 70.5046C63.0131 69.5607 62.144 68.5665 61.6319 67.9243L63.9776 66.054ZM69.1979 70.8274C69.8663 72.0468 70.7352 73.3195 71.7036 74.3453C72.6918 75.3921 73.6685 76.0597 74.5344 76.284C75.2861 76.4787 76.0733 76.3786 76.9707 75.5659C77.9503 74.6786 79.0603 72.9277 80.1052 69.774L82.953 70.7176C81.8398 74.0772 80.522 76.397 78.9845 77.7895C77.3648 79.2564 75.5457 79.6448 73.7823 79.1882C72.1331 78.7611 70.686 77.6376 69.5221 76.4047C68.3384 75.1508 67.3269 73.6554 66.5672 72.2695L69.1979 70.8274ZM80.654 69.0275C81.0922 68.7127 81.8486 68.0724 82.5764 67.2445C83.3127 66.4069 83.9357 65.4722 84.2282 64.5717L87.0814 65.4986C86.6122 66.9429 85.7013 68.2335 84.8296 69.2252C83.9495 70.2264 83.0238 71.019 82.4042 71.4641L80.654 69.0275Z" fill="black"/>
<path d="M78.0381 73.828C76.8744 72.6339 74.1028 71.0925 72.3256 74.4794C73.4892 75.5649 76.2609 76.9544 78.0381 73.828Z" fill="#FF8C8C" stroke="#FF8C8C" stroke-width="3" stroke-linecap="round"/>
<path d="M36.1463 73.5023C23.4518 77.0846 8.53581 66.3377 6.63164 55.5908H3.77538C-3.33352 30.8402 12.3442 18.1393 25.356 14.557L23.4518 11.9517C39.1929 4.39625 50.7449 14.557 52.6491 23.6756C58.7847 20.3104 74.2297 14.9478 86.9242 20.419C88.2084 12.7116 96.3358 -1.59599 114.217 2.83306L112.313 5.76404C123.103 5.87259 144.113 13.3195 141.828 42.2385L138.971 42.8898C138.337 50.7058 131.863 65.0871 112.313 66.6561M33.779 65.6864C-7.79533 65.6864 15.8351 5.11271 44.715 31.8172C26.6528 59.1963 32.6419 75.65 46.8453 83.2723M113.129 58.5217C112.656 49.7047 107.937 39.2248 97.0797 27.2579C121.517 -5.95989 154.522 49.4031 113.129 58.5217ZM113.129 58.5217C113.427 61.4195 113.122 64.1353 112.313 66.6561M112.313 66.6561C111.509 69.161 110.208 71.4733 108.505 73.5803M103.427 102.161C134.401 81.3183 122.786 66.6561 112.313 71.874L108.505 73.5803M99.3013 90.1112C102.898 98.7956 107.489 120.919 97.0797 139.938C92.2135 141.783 82.1003 142.674 80.5769 131.471M92.954 125.934C89.8482 129.804 79.7639 131.924 71.3734 131.069M62.1699 128.214C64.4623 129.782 67.7609 130.701 71.3734 131.069M71.3734 131.069C70.9503 135.871 67.5651 144.628 57.4095 141.241C54.0243 140.481 47.3809 132.904 47.8887 108.674M52.6491 104.44C39.0025 118.444 17.1046 109.977 46.8453 83.2723M46.8453 83.2723C65.0029 93.0165 96.5852 88.3276 108.505 73.5803" stroke="black" stroke-width="3" stroke-linecap="round"/>
<path d="M86.8373 50.3799C86.8373 54.4444 90.0384 57.6728 93.9061 57.6728C97.7738 57.6728 100.975 54.4444 100.975 50.3799C100.975 46.3153 97.7738 43.0869 93.9061 43.0869C90.0384 43.0869 86.8373 46.3153 86.8373 50.3799Z" stroke="black" stroke-width="3"/>
<path d="M45.5802 54.2878C45.5802 58.3524 48.7813 61.5808 52.649 61.5808C56.5167 61.5808 59.7178 58.3524 59.7178 54.2878C59.7178 50.2233 56.5167 46.9949 52.649 46.9949C48.7813 46.9949 45.5802 50.2233 45.5802 54.2878Z" stroke="black" stroke-width="3"/>
<rect x="-1.31357" y="1.67397" width="18.1238" height="22.2795" rx="9.0619" transform="matrix(-0.99243 0.122815 0.116719 0.993165 79.5829 41.1086)" fill="black" stroke="black" stroke-width="3"/>
<ellipse rx="5.07779" ry="4.88497" transform="matrix(-1 0 0 1 92.3192 52.3342)" fill="black"/>
<ellipse rx="5.07779" ry="4.88497" transform="matrix(-1 0 0 1 54.2359 56.2421)" fill="black"/>
<ellipse rx="1.90417" ry="1.95399" transform="matrix(-1 0 0 1 91.6845 48.7521)" fill="white"/>
<ellipse rx="1.90417" ry="1.95399" transform="matrix(-1 0 0 1 54.8705 52.6596)" fill="white"/>
</svg>
