<svg width="26" height="26" viewBox="0 0 26 26" fill="none" xmlns="http://www.w3.org/2000/svg">
<mask id="mask0_583_684" style="mask-type:luminance" maskUnits="userSpaceOnUse" x="0" y="0" width="26" height="26">
<path fill-rule="evenodd" clip-rule="evenodd" d="M0.166748 0.166992H25.2419V25.2431H0.166748V0.166992Z" fill="white"/>
</mask>
<g mask="url(#mask0_583_684)">
<path fill-rule="evenodd" clip-rule="evenodd" d="M6.12659 21.9545C6.80326 21.9545 7.44142 22.2112 8.11692 22.483C12.2551 24.3963 17.1493 23.526 20.3378 20.3387C24.5448 16.1293 24.5448 9.28216 20.3378 5.07516C18.3008 3.03816 15.5918 1.91699 12.7078 1.91699C9.82259 1.91699 7.11242 3.03933 5.07659 5.07633C1.88692 8.26366 1.01892 13.1578 2.91476 17.2563C3.18776 17.9318 3.45142 18.5898 3.45142 19.2735C3.45142 19.956 3.21692 20.6432 3.01042 21.2498C2.84009 21.7492 2.58226 22.5028 2.74792 22.6685C2.91009 22.8365 3.66842 22.5717 4.16892 22.4002C4.76976 22.1948 5.45109 21.9592 6.12659 21.9545ZM12.6786 25.2433C10.8959 25.2433 9.10159 24.8665 7.42276 24.0895C6.92809 23.8912 6.46492 23.7045 6.13242 23.7045C5.74976 23.7068 5.23526 23.8842 4.73826 24.0557C3.71859 24.4057 2.44926 24.842 1.51009 23.9063C0.574425 22.9695 1.00609 21.7037 1.35376 20.6852C1.52526 20.1835 1.70142 19.6655 1.70142 19.2735C1.70142 18.9515 1.54626 18.5408 1.30826 17.9493C-0.876909 13.2302 0.133425 7.54266 3.83992 3.83849C6.20592 1.47133 9.35476 0.166992 12.7066 0.166992C16.0584 0.166992 19.2084 1.47016 21.5744 3.83733C26.4651 8.72799 26.4651 16.6847 21.5744 21.5753C19.1769 23.974 15.9488 25.2433 12.6786 25.2433Z" fill="white"/>
</g>
<path fill-rule="evenodd" clip-rule="evenodd" d="M17.3124 14.3568C16.6684 14.3568 16.1411 13.8353 16.1411 13.1901C16.1411 12.5449 16.6579 12.0234 17.3019 12.0234H17.3124C17.9564 12.0234 18.4791 12.5449 18.4791 13.1901C18.4791 13.8353 17.9564 14.3568 17.3124 14.3568Z" fill="white"/>
<path fill-rule="evenodd" clip-rule="evenodd" d="M12.6354 14.3568C11.9914 14.3568 11.4641 13.8353 11.4641 13.1901C11.4641 12.5449 11.9798 12.0234 12.6249 12.0234H12.6354C13.2794 12.0234 13.8021 12.5449 13.8021 13.1901C13.8021 13.8353 13.2794 14.3568 12.6354 14.3568Z" fill="white"/>
<path fill-rule="evenodd" clip-rule="evenodd" d="M7.9582 14.3568C7.3142 14.3568 6.78687 13.8353 6.78687 13.1901C6.78687 12.5449 7.3037 12.0234 7.9477 12.0234H7.9582C8.6022 12.0234 9.12487 12.5449 9.12487 13.1901C9.12487 13.8353 8.6022 14.3568 7.9582 14.3568Z" fill="white"/>
</svg>
