<svg width="24" height="24" viewBox="0 0 24 24" fill="none" xmlns="http://www.w3.org/2000/svg">
<path fill-rule="evenodd" clip-rule="evenodd" d="M10.6058 14.2875L14.8723 21.2093C15.059 21.5126 15.3506 21.5091 15.4685 21.4928C15.5863 21.4765 15.8698 21.4041 15.9725 21.06L21.3076 3.04081C21.401 2.72231 21.2295 2.50531 21.1525 2.42831C21.0778 2.35131 20.8643 2.18681 20.5551 2.27431L2.52314 7.55465C2.18131 7.65498 2.10664 7.94198 2.09031 8.05981C2.07398 8.17998 2.06931 8.47748 2.37148 8.66765L9.37264 13.0461L15.5583 6.79515C15.8978 6.45215 16.452 6.44865 16.7961 6.78815C17.1403 7.12765 17.1426 7.68298 16.8031 8.02598L10.6058 14.2875ZM15.3775 23.2498C14.5655 23.2498 13.8211 22.8368 13.3825 22.1275L8.85931 14.788L1.44398 10.1505C0.64481 9.64998 0.227143 8.75865 0.356643 7.82181C0.484976 6.88498 1.12781 6.14065 2.03081 5.87581L20.0628 0.595482C20.8923 0.352815 21.7813 0.582648 22.3926 1.19165C23.004 1.80648 23.2315 2.70481 22.9841 3.53781L17.649 21.5558C17.3818 22.4623 16.6351 23.1028 15.7006 23.2276C15.591 23.2416 15.4848 23.2498 15.3775 23.2498Z" fill="white"/>
</svg>
