<svg width="38" height="36" viewBox="0 0 38 36" fill="none" xmlns="http://www.w3.org/2000/svg">
<path d="M29.8506 22.2535C29.3758 22.7137 29.1576 23.3792 29.2658 24.0318L30.8956 33.0518C31.0331 33.8163 30.7105 34.59 30.0706 35.0318C29.4436 35.4902 28.6095 35.5452 27.9256 35.1785L19.8058 30.9435C19.5235 30.7932 19.21 30.7125 18.8891 30.7033H18.3923C18.22 30.729 18.0513 30.784 17.8973 30.8683L9.77562 35.1235C9.37412 35.3252 8.91945 35.3967 8.47395 35.3252C7.38862 35.1198 6.66445 34.0858 6.84229 32.995L8.47395 23.975C8.58212 23.3168 8.36396 22.6477 7.88912 22.1802L1.26895 15.7635C0.715288 15.2263 0.522788 14.4197 0.775788 13.6918C1.02145 12.9658 1.64845 12.436 2.40562 12.3168L11.5173 10.995C12.2103 10.9235 12.819 10.5018 13.1306 9.8785L17.1456 1.64683C17.241 1.4635 17.3638 1.29483 17.5123 1.15183L17.6773 1.0235C17.7635 0.928163 17.8625 0.849329 17.9725 0.785163L18.1723 0.711829L18.484 0.583496H19.2558C19.9451 0.654996 20.552 1.0675 20.8691 1.6835L24.9373 9.8785C25.2306 10.478 25.8008 10.8942 26.459 10.995L35.5706 12.3168C36.3406 12.4268 36.9841 12.9585 37.239 13.6918C37.4791 14.427 37.272 15.2337 36.7073 15.7635L29.8506 22.2535Z" fill="url(#paint0_linear_583_583)"/>
<defs>
<linearGradient id="paint0_linear_583_583" x1="37.3375" y1="35.4192" x2="-5.93527" y2="22.2114" gradientUnits="userSpaceOnUse">
<stop stop-color="#6949FF"/>
<stop offset="1" stop-color="#876DFF"/>
</linearGradient>
</defs>
</svg>
