<svg width="27" height="26" viewBox="0 0 27 26" fill="none" xmlns="http://www.w3.org/2000/svg">
<path d="M14.1773 0.716084L17.1217 7.43171C17.2325 7.68445 17.409 7.90282 17.633 8.06405C17.8569 8.22527 18.12 8.32343 18.3948 8.34827L25.5676 8.9914C26.3792 9.10952 26.703 10.1048 26.1145 10.678L20.7114 15.217C20.2739 15.5845 20.0748 16.162 20.1951 16.7198L21.7658 24.072C21.9036 24.8792 21.057 25.4961 20.3308 25.1133L14.0701 21.447C13.834 21.3084 13.5652 21.2354 13.2914 21.2354C13.0176 21.2354 12.7488 21.3084 12.5126 21.447L6.25202 25.1111C5.52796 25.4917 4.67921 24.877 4.81702 24.0698L6.38764 16.7176C6.50577 16.1598 6.3089 15.5823 5.8714 15.2148L0.466082 10.6801C-0.120168 10.1092 0.203582 9.11171 1.01296 8.99358L8.18577 8.35046C8.46059 8.32561 8.7237 8.22746 8.94764 8.06624C9.17158 7.90501 9.34814 7.68663 9.4589 7.4339L12.4033 0.718272C12.7686 -0.0167282 13.8142 -0.0167282 14.1773 0.716084Z" fill="#FDD835"/>
</svg>
