<svg width="42" height="34" viewBox="0 0 42 34" fill="none" xmlns="http://www.w3.org/2000/svg">
<path fill-rule="evenodd" clip-rule="evenodd" d="M23.4879 6.82603C23.3957 5.9344 23.2995 5.00932 23.0631 4.0862C22.4191 1.8778 20.635 0.500018 18.7222 0.500018C17.6553 0.496081 16.3057 1.15348 15.5406 1.81876L9.19852 7.13111H5.87848C3.43508 7.13111 1.47035 9.01474 1.09933 11.7329C0.784048 14.3428 0.707151 19.2694 1.09933 22.1411C1.4396 25.0128 3.31589 26.8689 5.87848 26.8689H9.19852L15.6636 32.26C16.3269 32.8367 17.4976 33.498 18.5742 33.498C18.6434 33.5 18.7049 33.5 18.7664 33.5C20.7158 33.5 22.4325 32.071 23.0765 29.8685C23.3192 28.9374 23.4042 28.0646 23.4864 27.2212V27.2212L23.4879 27.2055L23.5744 26.365C23.9051 23.639 23.9051 10.3433 23.5744 7.63695L23.4879 6.82603ZM30.912 6.90673C30.3833 6.1273 29.3356 5.93244 28.5685 6.47372C27.8092 7.01893 27.6208 8.0936 28.1494 8.87107C29.6201 11.0381 30.4294 13.9236 30.4294 17C30.4294 20.0744 29.6201 22.9619 28.1494 25.1289C27.6208 25.9064 27.8092 26.9811 28.5704 27.5263C28.855 27.7271 29.1875 27.8333 29.5297 27.8333C30.0815 27.8333 30.5967 27.5558 30.912 27.0933C32.769 24.3574 33.7937 20.7732 33.7937 17C33.7937 13.2268 32.769 9.64263 30.912 6.90673ZM34.365 0.905292C35.1302 0.36205 36.1817 0.560845 36.7066 1.33831C39.5825 5.57205 41.1666 11.1363 41.1666 16.9998C41.1666 22.8672 39.5825 28.4295 36.7066 32.6633C36.3932 33.1258 35.8761 33.4034 35.3243 33.4034C34.9821 33.4034 34.6515 33.2971 34.367 33.0963C33.6057 32.5511 33.4173 31.4784 33.944 30.6989C36.4316 27.034 37.8023 22.1685 37.8023 16.9998C37.8023 11.8331 36.4316 6.96755 33.944 3.30264C33.4173 2.52518 33.6057 1.4505 34.365 0.905292Z" fill="url(#paint0_linear_583_589)"/>
<defs>
<linearGradient id="paint0_linear_583_589" x1="41.1666" y1="33.5" x2="-5.05637" y2="17.1199" gradientUnits="userSpaceOnUse">
<stop stop-color="#6949FF"/>
<stop offset="1" stop-color="#876DFF"/>
</linearGradient>
</defs>
</svg>
